####
#
# OBJ File Generated by Meshlab
#
####
# Object halfsphereNotclose.obj
#
# Vertices: 92
# Faces: 160
#
####
vn -0.000001 6.124784 0.000115
v 117.793404 0.595600 45.770699
vn 1.660430 5.887853 0.000146
v 117.956200 0.573000 45.770699
vn 0.513078 5.888255 -1.578663
v 117.843697 0.573000 45.615898
vn 3.212276 5.197437 0.000280
v 118.106499 0.506700 45.770699
vn 2.254920 5.429833 -1.637981
v 118.008904 0.532700 45.614101
vn 0.992570 5.197605 -3.054801
v 117.890198 0.506700 45.472900
vn -1.343088 5.888050 -0.975790
v 117.661697 0.573000 45.674999
vn -0.860966 5.429417 -2.651030
v 117.711098 0.532700 45.517300
vn -2.598398 5.197487 -1.888517
v 117.540100 0.506700 45.586601
vn -1.343265 5.888096 0.975747
v 117.661697 0.573000 45.866299
vn -2.786951 5.429835 0.000292
v 117.527000 0.532700 45.770699
vn -2.598493 5.197675 1.888251
v 117.540100 0.506700 45.954700
vn 0.512870 5.888011 1.578964
v 117.843697 0.573000 45.925499
vn -0.861561 5.430107 2.650347
v 117.711098 0.532700 46.023998
vn 0.992971 5.196955 3.054934
v 117.890198 0.506700 46.068501
vn 2.255459 5.429848 1.637904
v 118.008904 0.532700 45.927200
vn 4.205543 3.211707 -3.055701
v 118.203300 0.313100 45.472900
vn 2.747045 4.443221 -3.153798
v 118.059799 0.431000 45.457500
vn 3.848403 4.444191 -1.637670
v 118.173500 0.431000 45.614101
vn -1.606350 3.212343 -4.943304
v 117.636803 0.313100 45.288799
vn -2.150680 4.444325 -3.587018
v 117.577904 0.431000 45.420601
vn -0.368930 4.444462 -4.165898
v 117.761902 0.431000 45.360802
vn -5.198148 3.211534 0.000281
v 117.286697 0.313100 45.770699
vn -4.075819 4.443652 0.937675
v 117.393799 0.431000 45.867401
vn -4.075793 4.443656 -0.937625
v 117.393799 0.431000 45.673901
vn -1.606734 3.211362 4.944230
v 117.636803 0.313100 46.252499
vn -0.368506 4.443231 4.166340
v 117.761902 0.431000 46.180599
vn -2.151109 4.443453 3.586783
v 117.577904 0.431000 46.120800
vn 4.204782 3.211774 3.055833
v 118.203300 0.313100 46.068501
vn 3.848175 4.444680 1.637592
v 118.173500 0.431000 45.927200
vn 2.747138 4.443373 3.153881
v 118.059799 0.431000 46.083801
vn 4.524582 4.118051 0.000145
v 118.233101 0.401800 45.770699
vn 5.037395 3.091565 1.579010
v 118.283401 0.301200 45.925499
vn 5.477908 2.737933 0.000115
v 118.326103 0.266400 45.770699
vn 5.037520 3.091859 -1.578710
v 118.283401 0.301200 45.615898
vn 1.398007 4.118138 -4.303339
v 117.929298 0.401800 45.352501
vn 3.059288 3.091548 -4.303087
v 118.092003 0.301200 45.352501
vn 1.692882 2.739466 -5.208891
v 117.958000 0.266400 45.264000
vn 0.054627 3.092346 -5.278496
v 117.797600 0.301200 45.256802
vn -3.660202 4.118309 -2.660111
v 117.437698 0.401800 45.512199
vn -3.146624 3.092735 -4.238597
v 117.487999 0.301200 45.357399
vn -4.430625 2.739553 -3.219276
v 117.362396 0.266400 45.457500
vn -5.003752 3.092397 -1.683609
v 117.306000 0.301200 45.607899
vn -3.660773 4.118199 2.659794
v 117.437698 0.401800 46.029099
vn -5.003745 3.092393 1.683796
v 117.306000 0.301200 45.933399
vn -4.430594 2.739535 3.219281
v 117.362396 0.266400 46.083801
vn -3.147152 3.092163 4.238860
v 117.487999 0.301200 46.183899
vn 1.399094 4.117463 4.304080
v 117.929298 0.401800 46.188801
vn 0.054871 3.091637 5.279106
v 117.797600 0.301200 46.284500
vn 1.692882 2.739466 5.208891
v 117.958000 0.266400 46.277302
vn 3.058198 3.092218 4.303827
v 118.092003 0.301200 46.188801
vn 2.897744 0.340668 -0.967146
v 118.359901 0.000000 45.586601
vn 5.240735 1.658632 -2.650060
v 118.306702 0.164600 45.517300
vn 5.868019 1.433189 -0.974730
v 118.364700 0.138500 45.674999
vn 1.816069 0.340270 -2.456662
v 118.143501 0.000000 45.288799
vn 2.741484 1.432399 -5.278199
v 118.060898 0.138500 45.256802
vn 4.140135 1.658890 -4.166393
v 118.192902 0.164600 45.360802
vn -0.024983 0.340291 -3.054819
v 117.793404 0.000000 45.174999
vn -0.900784 1.658442 -5.803830
v 117.711098 0.164600 45.204201
vn 0.885474 1.432594 -5.881679
v 117.878998 0.138500 45.197701
vn -1.775602 0.339451 -2.486373
v 117.443298 0.000000 45.288799
vn -4.172864 1.432073 -4.238631
v 117.387398 0.138500 45.357399
vn -2.682632 1.658109 -5.224606
v 117.527000 0.164600 45.264000
vn -2.913301 0.339665 -0.919933
v 117.226898 0.000000 45.586601
vn -5.797990 1.657972 -0.936675
v 117.229202 0.164600 45.673901
vn -5.320161 1.432520 -2.659263
v 117.274902 0.138500 45.512199
vn -2.913399 0.339879 0.919814
v 117.226898 0.000000 45.954700
vn -5.320318 1.433080 2.658947
v 117.274902 0.138500 46.029099
vn -5.797997 1.657998 0.936726
v 117.229202 0.164600 45.867401
vn -1.775367 0.339680 2.486643
v 117.443298 0.000000 46.252499
vn -2.682664 1.658129 5.224552
v 117.527000 0.164600 46.277302
vn -4.172588 1.432801 4.238894
v 117.387398 0.138500 46.183899
vn -0.024986 0.340240 3.054843
v 117.793404 0.000000 46.366299
vn 0.885446 1.432548 5.881683
v 117.878998 0.138500 46.343601
vn -0.900782 1.658435 5.803818
v 117.711098 0.164600 46.337101
vn 1.815598 0.339717 2.457318
v 118.143501 0.000000 46.252499
vn 4.138844 1.658719 4.166836
v 118.192902 0.164600 46.180599
vn 2.740741 1.432301 5.278807
v 118.060898 0.138500 46.284500
vn 2.897856 0.340881 0.966999
v 118.359901 0.000000 45.954700
vn 5.868139 1.433051 0.974688
v 118.364700 0.138500 45.866299
vn 5.241619 1.658409 2.649376
v 118.306702 0.164600 46.023998
vn 3.058644 0.331149 0.000148
v 118.389000 0.000000 45.770699
vn 2.461981 0.394414 -1.789243
v 118.275299 0.000000 45.420601
vn 0.945350 0.329523 -2.909215
v 117.977402 0.000000 45.204201
vn -0.940771 0.393981 -2.894541
v 117.609299 0.000000 45.204201
vn -2.474582 0.329589 -1.798032
v 117.311501 0.000000 45.420601
vn -3.043848 0.393439 0.000144
v 117.197800 0.000000 45.770699
vn -2.474121 0.330462 1.798022
v 117.311501 0.000000 46.120800
vn -0.940767 0.393957 2.894534
v 117.609299 0.000000 46.337101
vn 0.945346 0.329497 2.909210
v 117.977402 0.000000 46.337101
vn 2.461854 0.394514 1.789018
v 118.275299 0.000000 46.120800
vn 0.000000 -1.000000 0.000000
v 117.793404 0.000000 45.770699
# 92 vertices, 0 vertices normals

f 1//1 2//2 3//3
f 2//2 4//4 5//5
f 2//2 5//5 3//3
f 3//3 5//5 6//6
f 1//1 3//3 7//7
f 3//3 6//6 8//8
f 3//3 8//8 7//7
f 7//7 8//8 9//9
f 1//1 7//7 10//10
f 7//7 9//9 11//11
f 7//7 11//11 10//10
f 10//10 11//11 12//12
f 1//1 10//10 13//13
f 10//10 12//12 14//14
f 10//10 14//14 13//13
f 13//13 14//14 15//15
f 1//1 13//13 2//2
f 13//13 15//15 16//16
f 13//13 16//16 2//2
f 2//2 16//16 4//4
f 17//17 18//18 19//19
f 18//18 6//6 5//5
f 18//18 5//5 19//19
f 19//19 5//5 4//4
f 20//20 21//21 22//22
f 21//21 9//9 8//8
f 21//21 8//8 22//22
f 22//22 8//8 6//6
f 23//23 24//24 25//25
f 24//24 12//12 11//11
f 24//24 11//11 25//25
f 25//25 11//11 9//9
f 26//26 27//27 28//28
f 27//27 15//15 14//14
f 27//27 14//14 28//28
f 28//28 14//14 12//12
f 29//29 30//30 31//31
f 30//30 4//4 16//16
f 30//30 16//16 31//31
f 31//31 16//16 15//15
f 4//4 30//30 32//32
f 30//30 29//29 33//33
f 30//30 33//33 32//32
f 32//32 33//33 34//34
f 4//4 32//32 19//19
f 32//32 34//34 35//35
f 32//32 35//35 19//19
f 19//19 35//35 17//17
f 6//6 18//18 36//36
f 18//18 17//17 37//37
f 18//18 37//37 36//36
f 36//36 37//37 38//38
f 6//6 36//36 22//22
f 36//36 38//38 39//39
f 36//36 39//39 22//22
f 22//22 39//39 20//20
f 9//9 21//21 40//40
f 21//21 20//20 41//41
f 21//21 41//41 40//40
f 40//40 41//41 42//42
f 9//9 40//40 25//25
f 40//40 42//42 43//43
f 40//40 43//43 25//25
f 25//25 43//43 23//23
f 12//12 24//24 44//44
f 24//24 23//23 45//45
f 24//24 45//45 44//44
f 44//44 45//45 46//46
f 12//12 44//44 28//28
f 44//44 46//46 47//47
f 44//44 47//47 28//28
f 28//28 47//47 26//26
f 15//15 27//27 48//48
f 27//27 26//26 49//49
f 27//27 49//49 48//48
f 48//48 49//49 50//50
f 15//15 48//48 31//31
f 48//48 50//50 51//51
f 48//48 51//51 31//31
f 31//31 51//51 29//29
f 52//52 53//53 54//54
f 53//53 17//17 35//35
f 53//53 35//35 54//54
f 54//54 35//35 34//34
f 55//55 56//56 57//57
f 56//56 38//38 37//37
f 56//56 37//37 57//57
f 57//57 37//37 17//17
f 58//58 59//59 60//60
f 59//59 20//20 39//39
f 59//59 39//39 60//60
f 60//60 39//39 38//38
f 61//61 62//62 63//63
f 62//62 42//42 41//41
f 62//62 41//41 63//63
f 63//63 41//41 20//20
f 64//64 65//65 66//66
f 65//65 23//23 43//43
f 65//65 43//43 66//66
f 66//66 43//43 42//42
f 67//67 68//68 69//69
f 68//68 46//46 45//45
f 68//68 45//45 69//69
f 69//69 45//45 23//23
f 70//70 71//71 72//72
f 71//71 26//26 47//47
f 71//71 47//47 72//72
f 72//72 47//47 46//46
f 73//73 74//74 75//75
f 74//74 50//50 49//49
f 74//74 49//49 75//75
f 75//75 49//49 26//26
f 76//76 77//77 78//78
f 77//77 29//29 51//51
f 77//77 51//51 78//78
f 78//78 51//51 50//50
f 79//79 80//80 81//81
f 80//80 34//34 33//33
f 80//80 33//33 81//81
f 81//81 33//33 29//29
f 34//34 80//80 54//54
f 80//80 79//79 82//82
f 80//80 82//82 54//54
f 54//54 82//82 52//52
f 17//17 53//53 57//57
f 53//53 52//52 83//83
f 53//53 83//83 57//57
f 57//57 83//83 55//55
f 38//38 56//56 60//60
f 56//56 55//55 84//84
f 56//56 84//84 60//60
f 60//60 84//84 58//58
f 20//20 59//59 63//63
f 59//59 58//58 85//85
f 59//59 85//85 63//63
f 63//63 85//85 61//61
f 42//42 62//62 66//66
f 62//62 61//61 86//86
f 62//62 86//86 66//66
f 66//66 86//86 64//64
f 23//23 65//65 69//69
f 65//65 64//64 87//87
f 65//65 87//87 69//69
f 69//69 87//87 67//67
f 46//46 68//68 72//72
f 68//68 67//67 88//88
f 68//68 88//88 72//72
f 72//72 88//88 70//70
f 26//26 71//71 75//75
f 71//71 70//70 89//89
f 71//71 89//89 75//75
f 75//75 89//89 73//73
f 50//50 74//74 78//78
f 74//74 73//73 90//90
f 74//74 90//90 78//78
f 78//78 90//90 76//76
f 29//29 77//77 81//81
f 77//77 76//76 91//91
f 77//77 91//91 81//81
f 81//81 91//91 79//79
# 160 faces, 0 coords texture

# End of File
